<?xml version="1.0" standalone="no"?>
<!DOCTYPE svg PUBLIC "-//W3C//DTD SVG 20010904//EN"
 "http://www.w3.org/TR/2001/REC-SVG-20010904/DTD/svg10.dtd">
<svg version="1.0" xmlns="http://www.w3.org/2000/svg"
 width="2000.000000pt" height="1500.000000pt" viewBox="0 0 2000.000000 1500.000000"
 preserveAspectRatio="xMidYMid meet">

<g transform="translate(0.000000,1500.000000) scale(0.100000,-0.100000)"
fill="#000000" stroke="none">
<path d="M0 7500 l0 -7500 10000 0 10000 0 0 7500 0 7500 -10000 0 -10000 0 0
-7500z m4739 2165 c761 -85 1386 -156 1388 -158 5 -5 -743 -3606 -750 -3614
-4 -3 -601 74 -1328 171 -726 98 -1322 176 -1325 174 -2 -3 108 -93 244 -202
l247 -198 12 31 c7 16 18 63 24 103 7 40 13 75 15 77 2 2 118 -14 259 -35
l257 -38 -4 -108 -3 -108 30 -5 c17 -3 329 -39 695 -80 366 -42 782 -89 924
-105 143 -17 263 -27 266 -23 4 5 174 831 379 1838 205 1007 376 1833 380
1837 3 3 33 1 66 -6 55 -11 60 -14 56 -37 -6 -47 -741 -3645 -751 -3681 -6
-21 -15 -38 -21 -38 -5 0 -188 20 -407 45 -1328 152 -1625 185 -1629 182 -1
-2 -12 -38 -22 -80 -35 -135 -101 -274 -184 -384 -18 -23 -36 -43 -42 -43 -5
0 -62 52 -126 116 l-117 117 -194 -17 c-106 -9 -211 -16 -233 -16 l-40 0 55
37 c118 78 331 319 317 357 -3 6 -125 108 -271 226 -146 118 -266 221 -266
230 0 22 649 3580 654 3589 3 4 18 6 33 4 15 -2 651 -73 1412 -158z m5413 -97
c-2 -73 -16 -630 -31 -1238 l-27 -1105 26 -550 c15 -302 24 -553 21 -557 -9
-9 -629 -123 -636 -116 -4 3 6 266 22 584 l28 579 -27 1110 c-14 611 -27 1155
-27 1210 l-1 100 308 57 c169 31 316 57 327 57 19 1 20 -4 17 -131z m7003 -47
c115 -51 166 -138 173 -296 7 -157 -34 -255 -152 -363 -73 -66 -146 -94 -246
-95 -143 -1 -241 57 -301 178 -36 73 -56 201 -45 278 18 116 166 265 311 314
60 20 199 11 260 -16z m-7875 -239 c0 -25 -39 -409 -46 -454 l-6 -38 -509 0
-509 0 0 -28 c0 -42 -19 -579 -25 -724 l-6 -128 455 0 c250 0 457 -3 459 -7 2
-5 -8 -118 -22 -253 l-26 -245 -436 -3 -436 -2 -7 -58 c-3 -31 7 -345 24 -697
16 -352 30 -643 30 -647 0 -5 -151 -8 -335 -8 l-335 0 1 48 c0 26 12 289 27
585 l27 538 -27 982 c-15 540 -27 1021 -27 1070 l-1 87 865 0 c823 0 865 -1
865 -18z m2560 -851 c234 -63 378 -206 442 -438 21 -75 22 -104 28 -708 l7
-630 26 -101 c26 -100 62 -199 111 -304 l25 -54 -240 -102 c-133 -57 -247
-105 -256 -108 -17 -7 -90 138 -152 303 l-38 101 -51 -67 c-178 -239 -419
-351 -694 -322 -162 16 -279 71 -388 181 -73 74 -131 184 -155 293 -26 116
-18 308 17 393 61 148 161 266 310 366 204 135 375 176 737 176 l193 0 -4 123
c-6 153 -28 218 -93 275 -53 46 -117 69 -240 83 -183 21 -373 -21 -628 -139
-60 -28 -89 -37 -92 -29 -38 105 -79 218 -104 283 l-30 82 57 38 c176 116 479
247 702 304 116 29 115 29 280 25 116 -3 174 -9 230 -24z m1523 -23 c3 -13 13
-111 22 -218 9 -107 19 -217 23 -243 l7 -49 37 49 c139 183 399 369 603 432
86 27 220 37 300 22 191 -35 347 -190 401 -399 l17 -68 131 131 c145 145 262
230 390 284 318 132 632 41 760 -221 74 -151 84 -251 63 -613 -15 -240 -14
-273 11 -832 14 -321 23 -586 19 -589 -8 -8 -630 -124 -636 -118 -2 2 8 275
24 606 42 917 29 1062 -100 1135 -124 69 -340 47 -545 -57 -118 -60 -108 -42
-120 -235 -9 -144 -7 -257 16 -748 15 -318 24 -580 21 -583 -8 -9 -631 -123
-637 -118 -2 3 8 280 23 617 31 673 32 743 17 867 -29 231 -96 295 -310 294
-134 -1 -285 -47 -425 -131 l-50 -29 -3 -185 c-1 -101 9 -433 23 -738 14 -304
25 -554 23 -556 -8 -7 -629 -118 -634 -113 -3 3 7 264 23 580 30 613 30 735
-2 1108 -15 178 -45 431 -65 554 -5 33 -8 61 -6 63 4 5 537 121 557 122 10 1
19 -9 22 -21z m3897 0 c0 -13 -13 -284 -28 -603 l-28 -580 26 -550 c15 -302
24 -553 21 -557 -6 -7 -593 -118 -623 -118 -15 0 -17 8 -12 63 2 34 16 294 30
577 l25 515 -27 578 c-14 318 -25 579 -23 581 6 4 592 113 617 115 17 1 22 -4
22 -21z"/>
<path d="M3495 9528 c-9 -28 -85 -521 -81 -526 8 -8 2260 -259 2268 -253 8 8
113 509 107 515 -2 2 -506 63 -1119 135 -613 73 -1127 134 -1143 137 -17 4
-29 1 -32 -8z"/>
<path d="M11245 7047 c-73 -20 -112 -43 -145 -88 -54 -75 -63 -218 -21 -315
91 -206 346 -210 623 -10 l57 41 1 162 0 162 -37 10 c-144 39 -398 58 -478 38z"/>
</g>
</svg>
