<?xml version="1.0" standalone="no"?>
<!DOCTYPE svg PUBLIC "-//W3C//DTD SVG 20010904//EN"
 "http://www.w3.org/TR/2001/REC-SVG-20010904/DTD/svg10.dtd">
<svg version="1.0" xmlns="http://www.w3.org/2000/svg"
 width="2000.000000pt" height="1500.000000pt" viewBox="0 0 2000.000000 1500.000000"
 preserveAspectRatio="xMidYMid meet">

<g transform="translate(0.000000,1500.000000) scale(0.100000,-0.100000)"
fill="#000000" stroke="none">
<path d="M3290 9815 c0 -3 -146 -808 -325 -1789 -179 -981 -325 -1790 -325
-1798 0 -7 120 -110 266 -227 146 -118 268 -220 271 -228 15 -39 -192 -272
-317 -356 l-55 -37 35 0 c19 0 124 7 233 16 l198 17 117 -116 c65 -64 122
-117 127 -117 6 0 24 20 42 43 83 110 146 242 182 381 12 44 23 81 25 83 2 2
459 -48 1015 -111 557 -64 1016 -116 1021 -116 5 0 14 17 19 38 9 34 749 3658
754 3691 1 10 -16 18 -58 27 -33 7 -63 9 -66 6 -4 -4 -174 -830 -379 -1837
-205 -1007 -376 -1833 -380 -1838 -3 -4 -402 38 -886 93 -483 55 -904 102
-934 105 -104 11 -96 0 -92 123 l4 108 -257 38 c-141 21 -258 36 -259 35 -2
-2 -8 -37 -15 -77 -6 -40 -17 -87 -24 -103 l-12 -31 -248 198 c-137 109 -244
200 -238 202 5 2 602 -76 1326 -174 724 -97 1319 -174 1322 -171 6 7 754 3609
750 3614 -5 4 -2769 313 -2806 313 -17 0 -31 -2 -31 -5z m920 -361 c1308 -154
1575 -186 1579 -190 6 -6 -98 -507 -107 -515 -4 -3 -200 16 -437 43 -236 27
-744 84 -1127 127 -384 42 -700 80 -703 83 -3 3 13 125 37 272 l42 267 41 -6
c22 -3 326 -39 675 -81z"/>
<path d="M9810 9641 l-305 -56 -2 -60 c-2 -33 10 -577 25 -1210 l28 -1150 -28
-579 c-16 -318 -26 -581 -23 -584 3 -3 144 20 313 51 169 32 310 57 315 57 11
0 8 128 -17 645 l-23 480 28 1100 c35 1349 35 1365 12 1364 -10 -1 -155 -27
-323 -58z"/>
<path d="M16907 9540 c-69 -18 -142 -62 -204 -126 -111 -113 -133 -174 -114
-323 24 -186 122 -299 280 -321 119 -16 227 18 315 100 101 94 146 195 146
327 0 223 -103 340 -304 349 -45 2 -98 -1 -119 -6z"/>
<path d="M7551 9228 c0 -40 12 -522 28 -1071 l27 -998 -27 -542 c-16 -298 -28
-561 -28 -584 l-1 -43 329 0 c182 0 332 4 335 8 3 5 -8 294 -25 643 -16 349
-27 662 -24 696 l7 63 436 2 437 3 22 210 c12 116 22 229 22 253 l1 42 -455 0
c-250 0 -455 3 -455 8 0 4 7 192 15 417 8 226 15 420 15 433 l0 22 509 0 510
0 5 43 c9 62 46 431 46 450 0 16 -64 17 -865 17 l-865 0 1 -72z"/>
<path d="M11415 8450 c-205 -37 -578 -189 -772 -315 -69 -44 -72 -47 -62 -73
6 -15 28 -74 49 -132 21 -58 48 -131 59 -162 l22 -56 93 43 c249 116 435 156
620 136 250 -28 324 -107 334 -357 l4 -122 -248 -5 c-179 -4 -270 -10 -323
-22 -340 -76 -617 -307 -685 -571 -20 -78 -21 -246 -1 -338 48 -228 225 -409
450 -461 98 -23 260 -21 356 4 172 44 324 155 447 324 l35 48 37 -98 c20 -54
60 -146 88 -205 l51 -108 103 43 c301 127 398 170 398 178 0 5 -20 55 -44 112
-111 261 -108 238 -116 972 -6 604 -7 633 -28 708 -65 234 -210 376 -447 438
-90 24 -333 35 -420 19z m220 -1423 l120 -22 3 -167 2 -166 -83 -56 c-106 -71
-177 -103 -268 -122 -197 -41 -339 64 -356 264 -13 158 58 262 200 292 62 13
246 2 382 -23z"/>
<path d="M13056 8369 c-148 -32 -270 -60 -272 -62 -1 -1 8 -74 21 -162 44
-299 76 -700 76 -952 1 -81 -11 -381 -26 -666 -14 -286 -24 -522 -21 -525 5
-5 625 106 634 113 1 1 -9 247 -23 546 -14 304 -24 630 -23 739 l3 194 63 37
c92 54 215 99 315 117 74 13 102 14 170 4 155 -23 205 -78 232 -257 21 -139
20 -226 -12 -912 -15 -331 -25 -604 -22 -607 5 -5 628 110 635 117 3 3 -6 266
-21 584 -22 492 -25 604 -16 746 6 93 13 173 17 179 11 17 223 114 294 134 99
27 258 25 328 -6 89 -38 120 -96 142 -253 16 -121 13 -304 -16 -925 -15 -315
-25 -574 -23 -576 5 -6 629 110 636 118 4 3 -6 268 -20 588 -26 568 -26 590
-11 838 8 140 13 292 9 337 -29 393 -310 614 -683 537 -188 -38 -344 -134
-538 -329 l-130 -131 -17 65 c-40 151 -147 295 -264 355 -156 78 -359 71 -551
-19 -185 -87 -378 -241 -496 -395 l-31 -41 -7 38 c-4 21 -14 128 -23 238 -20
238 -22 255 -44 254 -9 0 -137 -27 -285 -60z"/>
<path d="M16920 8372 c-162 -31 -297 -57 -298 -58 -2 -1 8 -263 23 -582 l27
-579 -26 -524 c-14 -288 -27 -548 -29 -576 -3 -44 -1 -53 13 -53 18 0 597 107
615 114 7 2 1 195 -16 557 l-26 554 28 585 c16 322 29 593 29 603 0 23 1 23
-340 -41z"/>
</g>
</svg>
